<?xml version="1.0" encoding="iso-8859-1"?>
<!-- Generator: Adobe Illustrator 19.0.0, SVG Export Plug-In . SVG Version: 6.00 Build 0)  -->
<svg version="1.1" id="Capa_1" xmlns="http://www.w3.org/2000/svg" xmlns:xlink="http://www.w3.org/1999/xlink" x="0px" y="0px"
	 viewBox="0 0 491.52 491.52" style="enable-background:new 0 0 491.52 491.52;" xml:space="preserve">
<circle style="fill:#EA8953;" cx="245.76" cy="245.76" r="245.76"/>
<path style="fill:#3A556A;" d="M379.718,104.96H111.804c-3.78,0-6.844,3.064-6.844,6.843v40.031h281.6v-40.031
	C386.56,108.024,383.496,104.96,379.718,104.96z"/>
<circle style="fill:#FCD462;" cx="314.266" cy="128.41" r="7.731"/>
<circle style="fill:#44C4A1;" cx="341.837" cy="128.41" r="7.731"/>
<circle style="fill:#E56353;" cx="369.408" cy="128.41" r="7.731"/>
<path style="fill:#EBF0F3;" d="M166.488,146.714h47.71l-2.808-8.304c-0.462-1.365-1.742-2.284-3.184-2.284h-45.422
	c0.099,0.226,0.259,0.411,0.339,0.648L166.488,146.714z"/>
<path style="fill:#64798A;" d="M386.56,151.834H165.224c-1.441,0-2.721-0.919-3.184-2.284l-3.766-11.14
	c-0.461-1.365-1.742-2.284-3.184-2.284h-34.81c-1.441,0-2.723,0.919-3.184,2.284l-3.766,11.14c-0.463,1.365-1.743,2.284-3.184,2.284
	h-5.186v23.453h281.6V151.834z"/>
<g>
	<path style="fill:#FFFFFF;" d="M104.96,379.717c0,3.779,3.064,6.843,6.842,6.843h267.915c3.779,0,6.842-3.064,6.842-6.843v-204.43
		h-281.6V379.717z"/>
	<path style="fill:#FFFFFF;" d="M156.125,166.633h-30.7c-1.695,0-3.07-1.375-3.07-3.073c0-1.698,1.375-3.073,3.07-3.073h30.7
		c1.695,0,3.07,1.375,3.07,3.073C159.195,165.258,157.82,166.633,156.125,166.633z"/>
	<path style="fill:#FFFFFF;" d="M208.62,166.633h-30.7c-1.695,0-3.07-1.375-3.07-3.073c0-1.698,1.375-3.073,3.07-3.073h30.7
		c1.695,0,3.07,1.375,3.07,3.073C211.69,165.258,210.315,166.633,208.62,166.633z"/>
	<path style="fill:#FFFFFF;" d="M261.11,166.633h-30.695c-1.695,0-3.07-1.375-3.07-3.073c0-1.698,1.375-3.073,3.07-3.073h30.695
		c1.695,0,3.07,1.375,3.07,3.073C264.18,165.258,262.805,166.633,261.11,166.633z"/>
	<path style="fill:#FFFFFF;" d="M313.605,166.633h-30.7c-1.695,0-3.07-1.375-3.07-3.073c0-1.698,1.375-3.073,3.07-3.073h30.7
		c1.695,0,3.07,1.375,3.07,3.073C316.675,165.258,315.3,166.633,313.605,166.633z"/>
	<path style="fill:#FFFFFF;" d="M366.095,166.633H335.4c-1.695,0-3.07-1.375-3.07-3.073c0-1.698,1.375-3.073,3.07-3.073h30.695
		c1.695,0,3.07,1.375,3.07,3.073C369.165,165.258,367.79,166.633,366.095,166.633z"/>
</g>
<path style="fill:#64798A;" d="M325.683,349.577l-8.401,13.943c-3.858,6.402-12.206,8.472-18.609,4.613
	c-6.403-3.858-8.474-12.206-4.616-18.608l8.401-13.942c3.858-6.403,12.207-8.474,18.609-4.615
	C327.471,334.825,329.541,343.175,325.683,349.577z M299.252,352.655c-2.131,3.537-0.987,8.151,2.552,10.283
	c3.538,2.133,8.152,0.989,10.284-2.549l8.401-13.942c2.133-3.539,0.988-8.153-2.55-10.285c-3.538-2.132-8.152-0.989-10.285,2.55
	L299.252,352.655z"/>
<path style="fill:#3A556A;" d="M322.661,325.462l-1.921,0.175l-8.802,14.607c-0.865,1.435-0.402,3.298,1.032,4.163
	c1.434,0.864,3.298,0.402,4.163-1.032l8.844-14.678l-1.8-0.198L322.661,325.462z"/>
<path style="fill:#64798A;" d="M368.278,332.439l-15.971,3.146c-7.334,1.445-14.475-3.347-15.92-10.682
	c-1.445-7.334,3.346-14.477,10.68-15.922l15.971-3.146c7.334-1.444,14.477,3.347,15.922,10.682
	C380.405,323.851,375.612,330.994,368.278,332.439z M348.239,314.931c-4.052,0.799-6.7,4.746-5.901,8.799
	c0.799,4.053,4.745,6.702,8.798,5.903l15.971-3.146c4.055-0.799,6.702-4.746,5.903-8.799c-0.799-4.053-4.745-6.702-8.799-5.903
	L348.239,314.931z"/>
<path style="fill:#3A556A;" d="M348.219,319.481l-16.968,3.343l1.42,1.305l-1.23,3.163l1.063,1.466l16.887-3.327
	c1.644-0.324,2.714-1.918,2.39-3.561C351.457,320.227,349.862,319.157,348.219,319.481z"/>
<g>
	
		<rect x="311.481" y="313.113" transform="matrix(-0.5678 0.8232 -0.8232 -0.5678 751.6957 240.872)" style="fill:#64798A;" width="2.268" height="9.308"/>
	
		<rect x="329.164" y="302.541" transform="matrix(-0.9938 0.111 -0.111 -0.9938 692.653 575.824)" style="fill:#64798A;" width="2.268" height="9.303"/>
	
		<rect x="320.322" y="308.649" transform="matrix(-0.8581 0.5135 -0.5135 -0.8581 757.7582 415.5957)" style="fill:#64798A;" width="2.268" height="7.695"/>
	
		<rect x="350.24" y="337.875" transform="matrix(-0.5678 0.8232 -0.8232 -0.5678 832.845 247.7902)" style="fill:#64798A;" width="2.268" height="9.308"/>
	
		<rect x="332.586" y="348.418" transform="matrix(-0.9938 0.111 -0.111 -0.9938 704.5688 666.9148)" style="fill:#64798A;" width="2.268" height="9.303"/>
	
		<rect x="341.463" y="343.927" transform="matrix(-0.8583 0.5132 -0.5132 -0.8583 815.1157 470.4381)" style="fill:#64798A;" width="2.268" height="7.695"/>
	<path style="fill:#64798A;" d="M182.568,232.693h-12.43c0.08,1.153,0.605,2.08,1.58,2.785c0.975,0.708,2.085,1.06,3.34,1.06
		c1.985,0,3.495-0.627,4.53-1.878l1.905,2.085c-1.705,1.77-3.935,2.652-6.675,2.652c-2.225,0-4.12-0.74-5.68-2.22
		c-1.56-1.48-2.34-3.467-2.34-5.962c0-2.492,0.795-4.475,2.385-5.945c1.59-1.473,3.465-2.208,5.62-2.208
		c2.155,0,3.99,0.652,5.5,1.953c1.51,1.303,2.265,3.095,2.265,5.38V232.693z M170.138,230.068h9.09c0-1.33-0.415-2.355-1.25-3.07
		c-0.835-0.715-1.865-1.073-3.085-1.073c-1.225,0-2.32,0.372-3.295,1.118C170.623,227.788,170.138,228.797,170.138,230.068z"/>
	<path style="fill:#64798A;" d="M194.548,226.433c-1.65,0-2.89,0.535-3.725,1.608c-0.835,1.075-1.25,2.515-1.25,4.322v6.798h-3.34
		v-15.858h3.34v3.187c0.535-0.992,1.265-1.807,2.19-2.442c0.925-0.637,1.9-0.965,2.935-0.985l0.03,3.37
		C194.668,226.433,194.608,226.433,194.548,226.433z"/>
	<path style="fill:#64798A;" d="M206.383,226.433c-1.65,0-2.89,0.535-3.725,1.608c-0.835,1.075-1.25,2.515-1.25,4.322v6.798h-3.34
		v-15.858h3.34v3.187c0.535-0.992,1.265-1.807,2.19-2.442c0.925-0.637,1.9-0.965,2.935-0.985l0.03,3.37
		C206.503,226.433,206.442,226.433,206.383,226.433z"/>
	<path style="fill:#64798A;" d="M222.868,237.027c-1.59,1.58-3.575,2.37-5.96,2.37c-2.385,0-4.375-0.79-5.965-2.37
		c-1.59-1.58-2.385-3.51-2.385-5.797c0-2.285,0.795-4.217,2.385-5.797c1.59-1.58,3.58-2.37,5.965-2.37c2.385,0,4.37,0.79,5.96,2.37
		c1.59,1.58,2.385,3.512,2.385,5.797C225.253,233.518,224.458,235.448,222.868,237.027z M213.312,234.973
		c0.945,0.963,2.14,1.445,3.595,1.445c1.45,0,2.645-0.482,3.59-1.445c0.945-0.965,1.415-2.21,1.415-3.743
		c0-1.53-0.47-2.775-1.415-3.74c-0.945-0.965-2.14-1.445-3.59-1.445c-1.455,0-2.65,0.48-3.595,1.445
		c-0.945,0.965-1.415,2.21-1.415,3.74C211.898,232.762,212.368,234.008,213.312,234.973z"/>
	<path style="fill:#64798A;" d="M237.353,226.433c-1.65,0-2.89,0.535-3.725,1.608c-0.835,1.075-1.25,2.515-1.25,4.322v6.798h-3.34
		v-15.858h3.34v3.187c0.535-0.992,1.265-1.807,2.19-2.442c0.925-0.637,1.9-0.965,2.935-0.985l0.03,3.37
		C237.473,226.433,237.413,226.433,237.353,226.433z"/>
	<path style="fill:#64798A;" d="M132.028,333.562c1.025,0.858,1.54,2.178,1.54,3.963c0,1.782-0.525,3.09-1.57,3.92
		c-1.045,0.827-2.65,1.243-4.815,1.243h-2.615v4.32h-2.485v-14.73h5.055C129.373,332.278,131.003,332.705,132.028,333.562z
		 M130.268,339.642c0.5-0.527,0.75-1.3,0.75-2.32c0-1.017-0.315-1.737-0.95-2.16c-0.63-0.42-1.62-0.63-2.97-0.63h-2.53v5.9h2.89
		C128.832,340.432,129.772,340.17,130.268,339.642z"/>
	<path style="fill:#64798A;" d="M145.033,347.008h-2.15v-1.498c-0.925,1.11-2.17,1.665-3.73,1.665c-1.165,0-2.13-0.33-2.895-0.99
		c-0.77-0.66-1.15-1.54-1.15-2.645c0-1.103,0.405-1.928,1.22-2.475c0.815-0.548,1.92-0.823,3.31-0.823h3.055v-0.422
		c0-1.487-0.83-2.232-2.485-2.232c-1.04,0-2.12,0.38-3.245,1.137l-1.055-1.475c1.365-1.083,2.91-1.623,4.635-1.623
		c1.32,0,2.4,0.332,3.235,1c0.835,0.667,1.255,1.717,1.255,3.152V347.008z M142.673,342.835v-0.948h-2.655
		c-1.7,0-2.55,0.532-2.55,1.6c0,0.547,0.21,0.968,0.63,1.255c0.425,0.288,1.01,0.433,1.76,0.433c0.755,0,1.41-0.212,1.97-0.632
		C142.393,344.12,142.673,343.552,142.673,342.835z"/>
	<path style="fill:#64798A;" d="M158.688,335.795v9.78c0,1.98-0.535,3.465-1.61,4.457c-1.075,0.99-2.455,1.485-4.145,1.485
		c-1.685,0-3.21-0.528-4.57-1.58l1.115-1.793c1.095,0.83,2.205,1.245,3.32,1.245c1.115,0,2.005-0.29,2.655-0.865
		c0.655-0.577,0.98-1.498,0.98-2.76v-1.435c-0.35,0.663-0.855,1.187-1.505,1.582c-0.655,0.393-1.39,0.59-2.205,0.59
		c-1.49,0-2.71-0.52-3.665-1.56c-0.955-1.04-1.435-2.333-1.435-3.877c0-1.545,0.48-2.838,1.435-3.878
		c0.955-1.04,2.175-1.56,3.655-1.56c1.485,0,2.69,0.61,3.615,1.832v-1.665H158.688z M149.943,340.97c0,0.92,0.285,1.715,0.855,2.38
		c0.565,0.667,1.335,1.002,2.295,1.002c0.965,0,1.74-0.323,2.34-0.97c0.595-0.645,0.895-1.45,0.895-2.413
		c0-0.963-0.3-1.778-0.905-2.445c-0.605-0.668-1.385-1-2.34-1c-0.955,0-1.72,0.343-2.285,1.032
		C150.228,339.245,149.943,340.05,149.943,340.97z"/>
	<path style="fill:#64798A;" d="M172.538,342.435h-8.79c0.055,0.815,0.43,1.47,1.12,1.97c0.685,0.498,1.475,0.747,2.36,0.747
		c1.405,0,2.47-0.442,3.2-1.328l1.35,1.475c-1.21,1.25-2.78,1.875-4.72,1.875c-1.575,0-2.91-0.522-4.015-1.57
		c-1.105-1.045-1.655-2.45-1.655-4.215c0-1.762,0.56-3.162,1.685-4.202c1.125-1.04,2.45-1.56,3.975-1.56
		c1.525,0,2.82,0.46,3.885,1.38c1.07,0.92,1.605,2.187,1.605,3.805V342.435z M163.748,340.58h6.43c0-0.942-0.295-1.665-0.885-2.17
		c-0.59-0.507-1.32-0.76-2.185-0.76c-0.86,0-1.64,0.265-2.325,0.79C164.093,338.968,163.748,339.68,163.748,340.58z"/>
	<path style="fill:#64798A;" d="M183.258,340.938v6.07h-2.36v-11.212h2.36v2.045c0.38-0.688,0.905-1.23,1.57-1.622
		c0.67-0.393,1.39-0.59,2.165-0.59c1.26,0,2.285,0.387,3.065,1.16c0.78,0.773,1.17,1.888,1.17,3.35v6.87h-2.36v-6.155
		c0-2.065-0.86-3.098-2.575-3.098c-0.815,0-1.52,0.272-2.125,0.813C183.563,339.107,183.258,339.897,183.258,340.938z"/>
	<path style="fill:#64798A;" d="M203.893,345.5c-1.125,1.117-2.53,1.675-4.215,1.675c-1.685,0-3.09-0.558-4.215-1.675
		c-1.125-1.118-1.685-2.483-1.685-4.098c0-1.617,0.56-2.982,1.685-4.1c1.125-1.118,2.53-1.675,4.215-1.675
		c1.685,0,3.09,0.557,4.215,1.675c1.125,1.118,1.685,2.483,1.685,4.1C205.578,343.017,205.018,344.382,203.893,345.5z
		 M197.138,344.048c0.67,0.68,1.515,1.02,2.54,1.02c1.025,0,1.87-0.34,2.54-1.02c0.665-0.682,1-1.565,1-2.645
		c0-1.082-0.335-1.965-1-2.645c-0.67-0.682-1.515-1.022-2.54-1.022c-1.025,0-1.87,0.34-2.54,1.022c-0.665,0.68-1,1.563-1,2.645
		C196.138,342.482,196.473,343.365,197.138,344.048z"/>
	<path style="fill:#64798A;" d="M210.993,337.693v5.69c0,0.535,0.14,0.96,0.42,1.275c0.285,0.317,0.675,0.475,1.18,0.475
		c0.51,0,0.995-0.247,1.455-0.737l0.97,1.665c-0.83,0.745-1.745,1.115-2.75,1.115c-1.005,0-1.86-0.347-2.57-1.042
		c-0.71-0.695-1.065-1.632-1.065-2.812v-5.627h-1.41v-1.897h1.41v-3.517h2.36v3.517h2.95v1.897H210.993z"/>
	<path style="fill:#64798A;" d="M225.578,334.867v0.928h2.95v1.897h-2.95v9.315h-2.36v-9.315h-1.41v-1.897h1.41v-0.863
		c0-1.18,0.355-2.12,1.065-2.815c0.71-0.695,1.565-1.042,2.57-1.042c1.005,0,1.92,0.373,2.75,1.118l-0.97,1.665
		c-0.46-0.493-0.945-0.738-1.455-0.738c-0.505,0-0.895,0.158-1.18,0.473C225.718,333.91,225.578,334.335,225.578,334.867z"/>
	<path style="fill:#64798A;" d="M239.908,345.5c-1.125,1.117-2.53,1.675-4.215,1.675c-1.685,0-3.09-0.558-4.215-1.675
		c-1.125-1.118-1.685-2.483-1.685-4.098c0-1.617,0.56-2.982,1.685-4.1c1.125-1.118,2.53-1.675,4.215-1.675
		c1.685,0,3.09,0.557,4.215,1.675c1.125,1.118,1.685,2.483,1.685,4.1C241.593,343.017,241.033,344.382,239.908,345.5z
		 M233.152,344.048c0.67,0.68,1.515,1.02,2.54,1.02c1.025,0,1.87-0.34,2.54-1.02c0.665-0.682,1-1.565,1-2.645
		c0-1.082-0.335-1.965-1-2.645c-0.67-0.682-1.515-1.022-2.54-1.022c-1.025,0-1.87,0.34-2.54,1.022c-0.665,0.68-1,1.563-1,2.645
		C232.153,342.482,232.488,343.365,233.152,344.048z"/>
	<path style="fill:#64798A;" d="M252.108,341.865v-6.07h2.36v11.212h-2.36v-2.045c-0.38,0.69-0.9,1.23-1.57,1.622
		c-0.665,0.395-1.385,0.59-2.16,0.59c-1.265,0-2.285-0.385-3.065-1.157c-0.78-0.773-1.17-1.89-1.17-3.353v-6.87h2.36v6.155
		c0,2.065,0.86,3.098,2.57,3.098c0.815,0,1.525-0.27,2.13-0.813C251.808,343.695,252.108,342.905,252.108,341.865z"/>
	<path style="fill:#64798A;" d="M260.243,340.938v6.07h-2.36v-11.212h2.36v2.045c0.38-0.688,0.905-1.23,1.57-1.622
		c0.67-0.393,1.39-0.59,2.165-0.59c1.26,0,2.285,0.387,3.065,1.16c0.78,0.773,1.17,1.888,1.17,3.35v6.87h-2.36v-6.155
		c0-2.065-0.86-3.098-2.575-3.098c-0.815,0-1.52,0.272-2.125,0.813C260.548,339.107,260.243,339.897,260.243,340.938z"/>
	<path style="fill:#64798A;" d="M272.362,345.575c-1.055-1.068-1.579-2.472-1.579-4.215s0.54-3.132,1.625-4.173
		c1.08-1.04,2.37-1.56,3.865-1.56c1.495,0,2.7,0.632,3.615,1.897v-6.155h2.36v15.638h-2.36v-1.685
		c-0.87,1.235-2.145,1.852-3.815,1.852C274.653,347.175,273.418,346.642,272.362,345.575z M273.143,341.455
		c0,1.075,0.345,1.948,1.035,2.623c0.685,0.675,1.495,1.012,2.42,1.012c0.93,0,1.715-0.34,2.36-1.022
		c0.65-0.68,0.97-1.555,0.97-2.622c0-1.07-0.32-1.96-0.97-2.678c-0.645-0.717-1.44-1.075-2.38-1.075s-1.75,0.357-2.425,1.075
		C273.483,339.485,273.143,340.38,273.143,341.455z"/>
</g>
<g>
	<path style="fill:#E56353;" d="M156.35,292.647v-10.842h9.49v10.842h7.115v9.065h-7.115v14.908h-9.49v-14.908h-25.41v-8.81
		l21.77-35.492h10.925l-21.43,35.237H156.35z"/>
	<path style="fill:#E56353;" d="M187.265,308.955c-4.01-5.562-6.01-13.003-6.01-22.32c0-9.317,2-16.757,6.01-22.32
		c4.01-5.562,10.055-8.345,18.13-8.345c8.075,0,14.115,2.782,18.125,8.345c4.01,5.563,6.015,13.003,6.015,22.32
		c0,9.317-2.005,16.758-6.015,22.32c-4.01,5.562-10.05,8.342-18.125,8.342C197.32,317.298,191.275,314.517,187.265,308.955z
		 M194.425,270.625c-2.345,4.065-3.515,9.402-3.515,16.01c0,6.605,1.17,11.942,3.515,16.008c2.34,4.067,6,6.1,10.97,6.1
		c4.965,0,8.595-2.018,10.885-6.057c2.285-4.035,3.43-9.388,3.43-16.05c0-6.663-1.145-12.015-3.43-16.052
		c-2.29-4.038-5.92-6.057-10.885-6.057C200.425,264.525,196.765,266.557,194.425,270.625z"/>
	<path style="fill:#E56353;" d="M263.08,292.647v-10.842h9.49v10.842h7.115v9.065h-7.115v14.908h-9.49v-14.908h-25.41v-8.81
		l21.77-35.492h10.925l-21.43,35.237H263.08z"/>
</g>
<g>
</g>
<g>
</g>
<g>
</g>
<g>
</g>
<g>
</g>
<g>
</g>
<g>
</g>
<g>
</g>
<g>
</g>
<g>
</g>
<g>
</g>
<g>
</g>
<g>
</g>
<g>
</g>
<g>
</g>
</svg>
